<?xml version="1.0" encoding="utf-8" ?>
<svg baseProfile="full" height="57.5mm" version="1.1" viewBox="0,0,306.20000000000005,57.5" width="306.20000000000005mm" xmlns="http://www.w3.org/2000/svg" xmlns:ev="http://www.w3.org/2001/xml-events" xmlns:xlink="http://www.w3.org/1999/xlink"><defs /><rect fill="#FFFFFF" height="57.5" width="306.20000000000005" x="0" y="0" /><text fill="#000000" style="font-size:6px; font-family:Arial; font-weight:bold;" x="10" y="10">跑步</text><text fill="#000000" style="font-size:3px; font-family:Arial;" x="10" y="14.4">2025: 2206 公里</text><text fill="#000000" style="font-size:2.5px; font-family:Arial" x="10" y="18.3">Jan</text><rect fill="#EBEDF0" height="4" rx="1" ry="1" width="4" x="10" y="19.7"><title>2024-12-30</title></rect><rect fill="#EBEDF0" height="4" rx="1" ry="1" width="4" x="10" y="25.1"><title>2024-12-31</title></rect><rect fill="#EBEDF0" height="4" rx="1" ry="1" width="4" x="10" y="30.5"><title>2025-01-01</title></rect><rect fill="#EBEDF0" height="4" rx="1" ry="1" width="4" x="10" y="35.9"><title>2025-01-02</title></rect><rect fill="#7fce82" height="4" rx="1" ry="1" width="4" x="10" y="41.300000000000004"><title>2025-01-03 9.16 公里</title></rect><rect fill="#92da95" height="4" rx="1" ry="1" width="4" x="10" y="46.699999999999996"><title>2025-01-04 5.149 公里</title></rect><rect fill="#93da95" height="4" rx="1" ry="1" width="4" x="10" y="52.1"><title>2025-01-05 5.008 公里</title></rect><rect fill="#EBEDF0" height="4" rx="1" ry="1" width="4" x="15.4" y="19.7"><title>2025-01-06</title></rect><rect fill="#7ccb7f" height="4" rx="1" ry="1" width="4" x="15.4" y="25.1"><title>2025-01-07 10.008 公里</title></rect><rect fill="#EBEDF0" height="4" rx="1" ry="1" width="4" x="15.4" y="30.5"><title>2025-01-08</title></rect><rect fill="#EBEDF0" height="4" rx="1" ry="1" width="4" x="15.4" y="35.9"><title>2025-01-09</title></rect><rect fill="#9cdf9e" height="4" rx="1" ry="1" width="4" x="15.4" y="41.300000000000004"><title>2025-01-10 3.209 公里</title></rect><rect fill="#93da95" height="4" rx="1" ry="1" width="4" x="15.4" y="46.699999999999996"><title>2025-01-11 5.022 公里</title></rect><rect fill="#EBEDF0" height="4" rx="1" ry="1" width="4" x="15.4" y="52.1"><title>2025-01-12</title></rect><rect fill="#7ccb7f" height="4" rx="1" ry="1" width="4" x="20.8" y="19.7"><title>2025-01-13 10.023 公里</title></rect><rect fill="#EBEDF0" height="4" rx="1" ry="1" width="4" x="20.8" y="25.1"><title>2025-01-14</title></rect><rect fill="#EBEDF0" height="4" rx="1" ry="1" width="4" x="20.8" y="30.5"><title>2025-01-15</title></rect><rect fill="#84d187" height="4" rx="1" ry="1" width="4" x="20.8" y="35.9"><title>2025-01-16 8.107 公里</title></rect><rect fill="#84d187" height="4" rx="1" ry="1" width="4" x="20.8" y="41.300000000000004"><title>2025-01-17 8.114 公里</title></rect><rect fill="#549F57" height="4" rx="1" ry="1" width="4" x="20.8" y="46.699999999999996"><title>2025-01-18 13.169 公里</title></rect><rect fill="#7ccb7f" height="4" rx="1" ry="1" width="4" x="20.8" y="52.1"><title>2025-01-19 10.009 公里</title></rect><rect fill="#93da95" height="4" rx="1" ry="1" width="4" x="26.200000000000003" y="19.7"><title>2025-01-20 5.055 公里</title></rect><rect fill="#7ccb7f" height="4" rx="1" ry="1" width="4" x="26.200000000000003" y="25.1"><title>2025-01-21 10.013 公里</title></rect><rect fill="#93da95" height="4" rx="1" ry="1" width="4" x="26.200000000000003" y="30.5"><title>2025-01-22 5.0 公里</title></rect><rect fill="#EBEDF0" height="4" rx="1" ry="1" width="4" x="26.200000000000003" y="35.9"><title>2025-01-23</title></rect><rect fill="#84d187" height="4" rx="1" ry="1" width="4" x="26.200000000000003" y="41.300000000000004"><title>2025-01-24 8.103 公里</title></rect><rect fill="#7ccb7f" height="4" rx="1" ry="1" width="4" x="26.200000000000003" y="46.699999999999996"><title>2025-01-25 10.012 公里</title></rect><rect fill="#EBEDF0" height="4" rx="1" ry="1" width="4" x="26.200000000000003" y="52.1"><title>2025-01-26</title></rect><rect fill="#7ccb7f" height="4" rx="1" ry="1" width="4" x="31.6" y="19.7"><title>2025-01-27 10.016 公里</title></rect><rect fill="#7ccb7f" height="4" rx="1" ry="1" width="4" x="31.6" y="25.1"><title>2025-01-28 10.009 公里</title></rect><rect fill="#EBEDF0" height="4" rx="1" ry="1" width="4" x="31.6" y="30.5"><title>2025-01-29</title></rect><rect fill="#549F57" height="4" rx="1" ry="1" width="4" x="31.6" y="35.9"><title>2025-01-30 13.613 公里</title></rect><rect fill="#93da95" height="4" rx="1" ry="1" width="4" x="31.6" y="41.300000000000004"><title>2025-01-31 5.009 公里</title></rect><rect fill="#85d287" height="4" rx="1" ry="1" width="4" x="31.6" y="46.699999999999996"><title>2025-02-01 8.014 公里</title></rect><rect fill="#85d287" height="4" rx="1" ry="1" width="4" x="31.6" y="52.1"><title>2025-02-02 8.022 公里</title></rect><text fill="#000000" style="font-size:2.5px; font-family:Arial" x="37.0" y="18.3">Feb</text><rect fill="#7ccb7f" height="4" rx="1" ry="1" width="4" x="37.0" y="19.7"><title>2025-02-03 10.014 公里</title></rect><rect fill="#93da95" height="4" rx="1" ry="1" width="4" x="37.0" y="25.1"><title>2025-02-04 5.016 公里</title></rect><rect fill="#549F57" height="4" rx="1" ry="1" width="4" x="37.0" y="30.5"><title>2025-02-05 13.911 公里</title></rect><rect fill="#EBEDF0" height="4" rx="1" ry="1" width="4" x="37.0" y="35.9"><title>2025-02-06</title></rect><rect fill="#84d187" height="4" rx="1" ry="1" width="4" x="37.0" y="41.300000000000004"><title>2025-02-07 8.124 公里</title></rect><rect fill="#7ccb7f" height="4" rx="1" ry="1" width="4" x="37.0" y="46.699999999999996"><title>2025-02-08 10.011 公里</title></rect><rect fill="#84d187" height="4" rx="1" ry="1" width="4" x="37.0" y="52.1"><title>2025-02-09 8.081 公里</title></rect><rect fill="#7ccb7f" height="4" rx="1" ry="1" width="4" x="42.4" y="19.7"><title>2025-02-10 10.012 公里</title></rect><rect fill="#549F57" height="4" rx="1" ry="1" width="4" x="42.4" y="25.1"><title>2025-02-11 13.164 公里</title></rect><rect fill="#90d993" height="4" rx="1" ry="1" width="4" x="42.4" y="30.5"><title>2025-02-12 5.499 公里</title></rect><rect fill="#EBEDF0" height="4" rx="1" ry="1" width="4" x="42.4" y="35.9"><title>2025-02-13</title></rect><rect fill="#EBEDF0" height="4" rx="1" ry="1" width="4" x="42.4" y="41.300000000000004"><title>2025-02-14</title></rect><rect fill="#EBEDF0" height="4" rx="1" ry="1" width="4" x="42.4" y="46.699999999999996"><title>2025-02-15</title></rect><rect fill="#EBEDF0" height="4" rx="1" ry="1" width="4" x="42.4" y="52.1"><title>2025-02-16</title></rect><rect fill="#84d187" height="4" rx="1" ry="1" width="4" x="47.8" y="19.7"><title>2025-02-17 8.102 公里</title></rect><rect fill="#7ccb7f" height="4" rx="1" ry="1" width="4" x="47.8" y="25.1"><title>2025-02-18 10.009 公里</title></rect><rect fill="#85d287" height="4" rx="1" ry="1" width="4" x="47.8" y="30.5"><title>2025-02-19 8.01 公里</title></rect><rect fill="#93db96" height="4" rx="1" ry="1" width="4" x="47.8" y="35.9"><title>2025-02-20 4.925 公里</title></rect><rect fill="#549F57" height="4" rx="1" ry="1" width="4" x="47.8" y="41.300000000000004"><title>2025-02-21 13.11 公里</title></rect><rect fill="#EBEDF0" height="4" rx="1" ry="1" width="4" x="47.8" y="46.699999999999996"><title>2025-02-22</title></rect><rect fill="#7ccb7f" height="4" rx="1" ry="1" width="4" x="47.8" y="52.1"><title>2025-02-23 10.011 公里</title></rect><rect fill="#EBEDF0" height="4" rx="1" ry="1" width="4" x="53.199999999999996" y="19.7"><title>2025-02-24</title></rect><rect fill="#EBEDF0" height="4" rx="1" ry="1" width="4" x="53.199999999999996" y="25.1"><title>2025-02-25</title></rect><rect fill="#85d287" height="4" rx="1" ry="1" width="4" x="53.199999999999996" y="30.5"><title>2025-02-26 8.029 公里</title></rect><rect fill="#EBEDF0" height="4" rx="1" ry="1" width="4" x="53.199999999999996" y="35.9"><title>2025-02-27</title></rect><rect fill="#7ccb7f" height="4" rx="1" ry="1" width="4" x="53.199999999999996" y="41.300000000000004"><title>2025-02-28 10.01 公里</title></rect><rect fill="#EBEDF0" height="4" rx="1" ry="1" width="4" x="53.199999999999996" y="46.699999999999996"><title>2025-03-01</title></rect><rect fill="#7ccb7f" height="4" rx="1" ry="1" width="4" x="53.199999999999996" y="52.1"><title>2025-03-02 10.009 公里</title></rect><text fill="#000000" style="font-size:2.5px; font-family:Arial" x="58.599999999999994" y="18.3">Mar</text><rect fill="#91d994" height="4" rx="1" ry="1" width="4" x="58.599999999999994" y="19.7"><title>2025-03-03 5.312 公里</title></rect><rect fill="#84d187" height="4" rx="1" ry="1" width="4" x="58.599999999999994" y="25.1"><title>2025-03-04 8.109 公里</title></rect><rect fill="#EBEDF0" height="4" rx="1" ry="1" width="4" x="58.599999999999994" y="30.5"><title>2025-03-05</title></rect><rect fill="#EBEDF0" height="4" rx="1" ry="1" width="4" x="58.599999999999994" y="35.9"><title>2025-03-06</title></rect><rect fill="#7ccb7f" height="4" rx="1" ry="1" width="4" x="58.599999999999994" y="41.300000000000004"><title>2025-03-07 10.008 公里</title></rect><rect fill="#EBEDF0" height="4" rx="1" ry="1" width="4" x="58.599999999999994" y="46.699999999999996"><title>2025-03-08</title></rect><rect fill="#549F57" height="4" rx="1" ry="1" width="4" x="58.599999999999994" y="52.1"><title>2025-03-09 13.108 公里</title></rect><rect fill="#7ecd81" height="4" rx="1" ry="1" width="4" x="63.99999999999999" y="19.7"><title>2025-03-10 9.505 公里</title></rect><rect fill="#85d288" height="4" rx="1" ry="1" width="4" x="63.99999999999999" y="25.1"><title>2025-03-11 7.926 公里</title></rect><rect fill="#8ad58d" height="4" rx="1" ry="1" width="4" x="63.99999999999999" y="30.5"><title>2025-03-12 6.784 公里</title></rect><rect fill="#5cb361" height="4" rx="1" ry="1" width="4" x="63.99999999999999" y="35.9"><title>2025-03-13 10.216 公里</title></rect><rect fill="#EBEDF0" height="4" rx="1" ry="1" width="4" x="63.99999999999999" y="41.300000000000004"><title>2025-03-14</title></rect><rect fill="#549F57" height="4" rx="1" ry="1" width="4" x="63.99999999999999" y="46.699999999999996"><title>2025-03-15 13.112 公里</title></rect><rect fill="#EBEDF0" height="4" rx="1" ry="1" width="4" x="63.99999999999999" y="52.1"><title>2025-03-16</title></rect><rect fill="#86d288" height="4" rx="1" ry="1" width="4" x="69.39999999999999" y="19.7"><title>2025-03-17 7.805 公里</title></rect><rect fill="#84d187" height="4" rx="1" ry="1" width="4" x="69.39999999999999" y="25.1"><title>2025-03-18 8.096 公里</title></rect><rect fill="#8bd58d" height="4" rx="1" ry="1" width="4" x="69.39999999999999" y="30.5"><title>2025-03-19 6.735 公里</title></rect><rect fill="#7ccb7f" height="4" rx="1" ry="1" width="4" x="69.39999999999999" y="35.9"><title>2025-03-20 10.01 公里</title></rect><rect fill="#EBEDF0" height="4" rx="1" ry="1" width="4" x="69.39999999999999" y="41.300000000000004"><title>2025-03-21</title></rect><rect fill="#549F57" height="4" rx="1" ry="1" width="4" x="69.39999999999999" y="46.699999999999996"><title>2025-03-22 15.108 公里</title></rect><rect fill="#EBEDF0" height="4" rx="1" ry="1" width="4" x="69.39999999999999" y="52.1"><title>2025-03-23</title></rect><rect fill="#5bb25f" height="4" rx="1" ry="1" width="4" x="74.8" y="19.7"><title>2025-03-24 11.109 公里</title></rect><rect fill="#5cb360" height="4" rx="1" ry="1" width="4" x="74.8" y="25.1"><title>2025-03-25 10.481 公里</title></rect><rect fill="#7ccb7f" height="4" rx="1" ry="1" width="4" x="74.8" y="30.5"><title>2025-03-26 10.005 公里</title></rect><rect fill="#5bb15f" height="4" rx="1" ry="1" width="4" x="74.8" y="35.9"><title>2025-03-27 11.774000000000001 公里</title></rect><rect fill="#88d48a" height="4" rx="1" ry="1" width="4" x="74.8" y="41.300000000000004"><title>2025-03-28 7.359 公里</title></rect><rect fill="#549F57" height="4" rx="1" ry="1" width="4" x="74.8" y="46.699999999999996"><title>2025-03-29 15.87 公里</title></rect><rect fill="#EBEDF0" height="4" rx="1" ry="1" width="4" x="74.8" y="52.1"><title>2025-03-30</title></rect><rect fill="#84d187" height="4" rx="1" ry="1" width="4" x="80.2" y="19.7"><title>2025-03-31 8.08 公里</title></rect><rect fill="#7ccb7f" height="4" rx="1" ry="1" width="4" x="80.2" y="25.1"><title>2025-04-01 10.022 公里</title></rect><rect fill="#EBEDF0" height="4" rx="1" ry="1" width="4" x="80.2" y="30.5"><title>2025-04-02</title></rect><rect fill="#549F57" height="4" rx="1" ry="1" width="4" x="80.2" y="35.9"><title>2025-04-03 15.012 公里</title></rect><rect fill="#5cb361" height="4" rx="1" ry="1" width="4" x="80.2" y="41.300000000000004"><title>2025-04-04 10.246 公里</title></rect><rect fill="#8fd892" height="4" rx="1" ry="1" width="4" x="80.2" y="46.699999999999996"><title>2025-04-05 5.688 公里</title></rect><rect fill="#5bb25f" height="4" rx="1" ry="1" width="4" x="80.2" y="52.1"><title>2025-04-06 11.116 公里</title></rect><text fill="#000000" style="font-size:2.5px; font-family:Arial" x="85.60000000000001" y="18.3">Apr</text><rect fill="#7dcd80" height="4" rx="1" ry="1" width="4" x="85.60000000000001" y="19.7"><title>2025-04-07 9.683 公里</title></rect><rect fill="#8fd892" height="4" rx="1" ry="1" width="4" x="85.60000000000001" y="25.1"><title>2025-04-08 5.779 公里</title></rect><rect fill="#5cb361" height="4" rx="1" ry="1" width="4" x="85.60000000000001" y="30.5"><title>2025-04-09 10.116 公里</title></rect><rect fill="#84d187" height="4" rx="1" ry="1" width="4" x="85.60000000000001" y="35.9"><title>2025-04-10 8.19 公里</title></rect><rect fill="#EBEDF0" height="4" rx="1" ry="1" width="4" x="85.60000000000001" y="41.300000000000004"><title>2025-04-11</title></rect><rect fill="#5cb360" height="4" rx="1" ry="1" width="4" x="85.60000000000001" y="46.699999999999996"><title>2025-04-12 10.427 公里</title></rect><rect fill="#549F57" height="4" rx="1" ry="1" width="4" x="85.60000000000001" y="52.1"><title>2025-04-13 15.01 公里</title></rect><rect fill="#5bb15f" height="4" rx="1" ry="1" width="4" x="91.00000000000001" y="19.7"><title>2025-04-14 11.69 公里</title></rect><rect fill="#EBEDF0" height="4" rx="1" ry="1" width="4" x="91.00000000000001" y="25.1"><title>2025-04-15</title></rect><rect fill="#549F57" height="4" rx="1" ry="1" width="4" x="91.00000000000001" y="30.5"><title>2025-04-16 13.019 公里</title></rect><rect fill="#5ab05e" height="4" rx="1" ry="1" width="4" x="91.00000000000001" y="35.9"><title>2025-04-17 12.014 公里</title></rect><rect fill="#EBEDF0" height="4" rx="1" ry="1" width="4" x="91.00000000000001" y="41.300000000000004"><title>2025-04-18</title></rect><rect fill="#EBEDF0" height="4" rx="1" ry="1" width="4" x="91.00000000000001" y="46.699999999999996"><title>2025-04-19</title></rect><rect fill="#EBEDF0" height="4" rx="1" ry="1" width="4" x="91.00000000000001" y="52.1"><title>2025-04-20</title></rect><rect fill="#EBEDF0" height="4" rx="1" ry="1" width="4" x="96.40000000000002" y="19.7"><title>2025-04-21</title></rect><rect fill="#EBEDF0" height="4" rx="1" ry="1" width="4" x="96.40000000000002" y="25.1"><title>2025-04-22</title></rect><rect fill="#EBEDF0" height="4" rx="1" ry="1" width="4" x="96.40000000000002" y="30.5"><title>2025-04-23</title></rect><rect fill="#EBEDF0" height="4" rx="1" ry="1" width="4" x="96.40000000000002" y="35.9"><title>2025-04-24</title></rect><rect fill="#EBEDF0" height="4" rx="1" ry="1" width="4" x="96.40000000000002" y="41.300000000000004"><title>2025-04-25</title></rect><rect fill="#84d287" height="4" rx="1" ry="1" width="4" x="96.40000000000002" y="46.699999999999996"><title>2025-04-26 8.042 公里</title></rect><rect fill="#5cb361" height="4" rx="1" ry="1" width="4" x="96.40000000000002" y="52.1"><title>2025-04-27 10.149 公里</title></rect><rect fill="#7ccb7f" height="4" rx="1" ry="1" width="4" x="101.80000000000003" y="19.7"><title>2025-04-28 10.014 公里</title></rect><rect fill="#5cb361" height="4" rx="1" ry="1" width="4" x="101.80000000000003" y="25.1"><title>2025-04-29 10.188 公里</title></rect><rect fill="#5bb25f" height="4" rx="1" ry="1" width="4" x="101.80000000000003" y="30.5"><title>2025-04-30 11.165 公里</title></rect><rect fill="#EBEDF0" height="4" rx="1" ry="1" width="4" x="101.80000000000003" y="35.9"><title>2025-05-01</title></rect><rect fill="#8ed790" height="4" rx="1" ry="1" width="4" x="101.80000000000003" y="41.300000000000004"><title>2025-05-02 6.091 公里</title></rect><rect fill="#EBEDF0" height="4" rx="1" ry="1" width="4" x="101.80000000000003" y="46.699999999999996"><title>2025-05-03</title></rect><rect fill="#549F57" height="4" rx="1" ry="1" width="4" x="101.80000000000003" y="52.1"><title>2025-05-04 15.26 公里</title></rect><text fill="#000000" style="font-size:2.5px; font-family:Arial" x="107.20000000000003" y="18.3">May</text><rect fill="#5bb25f" height="4" rx="1" ry="1" width="4" x="107.20000000000003" y="19.7"><title>2025-05-05 11.053 公里</title></rect><rect fill="#EBEDF0" height="4" rx="1" ry="1" width="4" x="107.20000000000003" y="25.1"><title>2025-05-06</title></rect><rect fill="#549F57" height="4" rx="1" ry="1" width="4" x="107.20000000000003" y="30.5"><title>2025-05-07 12.098 公里</title></rect><rect fill="#7ccb7f" height="4" rx="1" ry="1" width="4" x="107.20000000000003" y="35.9"><title>2025-05-08 10.008 公里</title></rect><rect fill="#EBEDF0" height="4" rx="1" ry="1" width="4" x="107.20000000000003" y="41.300000000000004"><title>2025-05-09</title></rect><rect fill="#549F57" height="4" rx="1" ry="1" width="4" x="107.20000000000003" y="46.699999999999996"><title>2025-05-10 20.011 公里</title></rect><rect fill="#93da95" height="4" rx="1" ry="1" width="4" x="107.20000000000003" y="52.1"><title>2025-05-11 5.011 公里</title></rect><rect fill="#549F57" height="4" rx="1" ry="1" width="4" x="112.60000000000004" y="19.7"><title>2025-05-12 13.018 公里</title></rect><rect fill="#EBEDF0" height="4" rx="1" ry="1" width="4" x="112.60000000000004" y="25.1"><title>2025-05-13</title></rect><rect fill="#82d085" height="4" rx="1" ry="1" width="4" x="112.60000000000004" y="30.5"><title>2025-05-14 8.509 公里</title></rect><rect fill="#EBEDF0" height="4" rx="1" ry="1" width="4" x="112.60000000000004" y="35.9"><title>2025-05-15</title></rect><rect fill="#EBEDF0" height="4" rx="1" ry="1" width="4" x="112.60000000000004" y="41.300000000000004"><title>2025-05-16</title></rect><rect fill="#EBEDF0" height="4" rx="1" ry="1" width="4" x="112.60000000000004" y="46.699999999999996"><title>2025-05-17</title></rect><rect fill="#93da95" height="4" rx="1" ry="1" width="4" x="112.60000000000004" y="52.1"><title>2025-05-18 5.05 公里</title></rect><rect fill="#549F57" height="4" rx="1" ry="1" width="4" x="118.00000000000004" y="19.7"><title>2025-05-19 12.339 公里</title></rect><rect fill="#8cd78f" height="4" rx="1" ry="1" width="4" x="118.00000000000004" y="25.1"><title>2025-05-20 6.356 公里</title></rect><rect fill="#84d187" height="4" rx="1" ry="1" width="4" x="118.00000000000004" y="30.5"><title>2025-05-21 8.078 公里</title></rect><rect fill="#7ccb7f" height="4" rx="1" ry="1" width="4" x="118.00000000000004" y="35.9"><title>2025-05-22 10.006 公里</title></rect><rect fill="#EBEDF0" height="4" rx="1" ry="1" width="4" x="118.00000000000004" y="41.300000000000004"><title>2025-05-23</title></rect><rect fill="#5cb361" height="4" rx="1" ry="1" width="4" x="118.00000000000004" y="46.699999999999996"><title>2025-05-24 10.19 公里</title></rect><rect fill="#5bb15f" height="4" rx="1" ry="1" width="4" x="118.00000000000004" y="52.1"><title>2025-05-25 11.728 公里</title></rect><rect fill="#5bb260" height="4" rx="1" ry="1" width="4" x="123.40000000000005" y="19.7"><title>2025-05-26 11.02 公里</title></rect><rect fill="#EBEDF0" height="4" rx="1" ry="1" width="4" x="123.40000000000005" y="25.1"><title>2025-05-27</title></rect><rect fill="#549F57" height="4" rx="1" ry="1" width="4" x="123.40000000000005" y="30.5"><title>2025-05-28 13.337 公里</title></rect><rect fill="#83d085" height="4" rx="1" ry="1" width="4" x="123.40000000000005" y="35.9"><title>2025-05-29 8.456 公里</title></rect><rect fill="#EBEDF0" height="4" rx="1" ry="1" width="4" x="123.40000000000005" y="41.300000000000004"><title>2025-05-30</title></rect><rect fill="#549F57" height="4" rx="1" ry="1" width="4" x="123.40000000000005" y="46.699999999999996"><title>2025-05-31 21.118 公里</title></rect><rect fill="#EBEDF0" height="4" rx="1" ry="1" width="4" x="123.40000000000005" y="52.1"><title>2025-06-01</title></rect><text fill="#000000" style="font-size:2.5px; font-family:Arial" x="128.80000000000004" y="18.3">Jun</text><rect fill="#7ccb7f" height="4" rx="1" ry="1" width="4" x="128.80000000000004" y="19.7"><title>2025-06-02 10.009 公里</title></rect><rect fill="#93da95" height="4" rx="1" ry="1" width="4" x="128.80000000000004" y="25.1"><title>2025-06-03 5.015 公里</title></rect><rect fill="#7ccb7f" height="4" rx="1" ry="1" width="4" x="128.80000000000004" y="30.5"><title>2025-06-04 10.015 公里</title></rect><rect fill="#EBEDF0" height="4" rx="1" ry="1" width="4" x="128.80000000000004" y="35.9"><title>2025-06-05</title></rect><rect fill="#549F57" height="4" rx="1" ry="1" width="4" x="128.80000000000004" y="41.300000000000004"><title>2025-06-06 16.21 公里</title></rect><rect fill="#EBEDF0" height="4" rx="1" ry="1" width="4" x="128.80000000000004" y="46.699999999999996"><title>2025-06-07</title></rect><rect fill="#5cb361" height="4" rx="1" ry="1" width="4" x="128.80000000000004" y="52.1"><title>2025-06-08 10.088 公里</title></rect><rect fill="#83d186" height="4" rx="1" ry="1" width="4" x="134.20000000000005" y="19.7"><title>2025-06-09 8.367 公里</title></rect><rect fill="#93da95" height="4" rx="1" ry="1" width="4" x="134.20000000000005" y="25.1"><title>2025-06-10 5.009 公里</title></rect><rect fill="#EBEDF0" height="4" rx="1" ry="1" width="4" x="134.20000000000005" y="30.5"><title>2025-06-11</title></rect><rect fill="#549F57" height="4" rx="1" ry="1" width="4" x="134.20000000000005" y="35.9"><title>2025-06-12 12.164 公里</title></rect><rect fill="#549F57" height="4" rx="1" ry="1" width="4" x="134.20000000000005" y="41.300000000000004"><title>2025-06-13 12.897 公里</title></rect><rect fill="#EBEDF0" height="4" rx="1" ry="1" width="4" x="134.20000000000005" y="46.699999999999996"><title>2025-06-14</title></rect><rect fill="#5ab15f" height="4" rx="1" ry="1" width="4" x="134.20000000000005" y="52.1"><title>2025-06-15 11.853 公里</title></rect><rect fill="#5bb15f" height="4" rx="1" ry="1" width="4" x="139.60000000000005" y="19.7"><title>2025-06-16 11.553 公里</title></rect><rect fill="#89d58c" height="4" rx="1" ry="1" width="4" x="139.60000000000005" y="25.1"><title>2025-06-17 7.008 公里</title></rect><rect fill="#83d186" height="4" rx="1" ry="1" width="4" x="139.60000000000005" y="30.5"><title>2025-06-18 8.381 公里</title></rect><rect fill="#83d186" height="4" rx="1" ry="1" width="4" x="139.60000000000005" y="35.9"><title>2025-06-19 8.303 公里</title></rect><rect fill="#549F57" height="4" rx="1" ry="1" width="4" x="139.60000000000005" y="41.300000000000004"><title>2025-06-20 15.727 公里</title></rect><rect fill="#92da94" height="4" rx="1" ry="1" width="4" x="139.60000000000005" y="46.699999999999996"><title>2025-06-21 5.253 公里</title></rect><rect fill="#7ccb7f" height="4" rx="1" ry="1" width="4" x="139.60000000000005" y="52.1"><title>2025-06-22 10.011 公里</title></rect><rect fill="#5bb260" height="4" rx="1" ry="1" width="4" x="145.00000000000006" y="19.7"><title>2025-06-23 11.022 公里</title></rect><rect fill="#7ccb7f" height="4" rx="1" ry="1" width="4" x="145.00000000000006" y="25.1"><title>2025-06-24 10.019 公里</title></rect><rect fill="#EBEDF0" height="4" rx="1" ry="1" width="4" x="145.00000000000006" y="30.5"><title>2025-06-25</title></rect><rect fill="#7ccb7f" height="4" rx="1" ry="1" width="4" x="145.00000000000006" y="35.9"><title>2025-06-26 10.01 公里</title></rect><rect fill="#EBEDF0" height="4" rx="1" ry="1" width="4" x="145.00000000000006" y="41.300000000000004"><title>2025-06-27</title></rect><rect fill="#EBEDF0" height="4" rx="1" ry="1" width="4" x="145.00000000000006" y="46.699999999999996"><title>2025-06-28</title></rect><rect fill="#7ccb7f" height="4" rx="1" ry="1" width="4" x="145.00000000000006" y="52.1"><title>2025-06-29 10.013 公里</title></rect><rect fill="#EBEDF0" height="4" rx="1" ry="1" width="4" x="150.40000000000006" y="19.7"><title>2025-06-30</title></rect><rect fill="#EBEDF0" height="4" rx="1" ry="1" width="4" x="150.40000000000006" y="25.1"><title>2025-07-01</title></rect><rect fill="#5db361" height="4" rx="1" ry="1" width="4" x="150.40000000000006" y="30.5"><title>2025-07-02 10.041 公里</title></rect><rect fill="#7ccb7f" height="4" rx="1" ry="1" width="4" x="150.40000000000006" y="35.9"><title>2025-07-03 10.017 公里</title></rect><rect fill="#EBEDF0" height="4" rx="1" ry="1" width="4" x="150.40000000000006" y="41.300000000000004"><title>2025-07-04</title></rect><rect fill="#83d086" height="4" rx="1" ry="1" width="4" x="150.40000000000006" y="46.699999999999996"><title>2025-07-05 8.439 公里</title></rect><rect fill="#5bb260" height="4" rx="1" ry="1" width="4" x="150.40000000000006" y="52.1"><title>2025-07-06 11.012 公里</title></rect><text fill="#000000" style="font-size:2.5px; font-family:Arial" x="155.80000000000007" y="18.3">Jul</text><rect fill="#93da95" height="4" rx="1" ry="1" width="4" x="155.80000000000007" y="19.7"><title>2025-07-07 5.008 公里</title></rect><rect fill="#7ccb7f" height="4" rx="1" ry="1" width="4" x="155.80000000000007" y="25.1"><title>2025-07-08 10.013 公里</title></rect><rect fill="#5cb260" height="4" rx="1" ry="1" width="4" x="155.80000000000007" y="30.5"><title>2025-07-09 10.915 公里</title></rect><rect fill="#EBEDF0" height="4" rx="1" ry="1" width="4" x="155.80000000000007" y="35.9"><title>2025-07-10</title></rect><rect fill="#549F57" height="4" rx="1" ry="1" width="4" x="155.80000000000007" y="41.300000000000004"><title>2025-07-11 16.66 公里</title></rect><rect fill="#EBEDF0" height="4" rx="1" ry="1" width="4" x="155.80000000000007" y="46.699999999999996"><title>2025-07-12</title></rect><rect fill="#549F57" height="4" rx="1" ry="1" width="4" x="155.80000000000007" y="52.1"><title>2025-07-13 12.823999999999998 公里</title></rect><rect fill="#5bb15f" height="4" rx="1" ry="1" width="4" x="161.20000000000007" y="19.7"><title>2025-07-14 11.646 公里</title></rect><rect fill="#EBEDF0" height="4" rx="1" ry="1" width="4" x="161.20000000000007" y="25.1"><title>2025-07-15</title></rect><rect fill="#5cb360" height="4" rx="1" ry="1" width="4" x="161.20000000000007" y="30.5"><title>2025-07-16 10.303 公里</title></rect><rect fill="#EBEDF0" height="4" rx="1" ry="1" width="4" x="161.20000000000007" y="35.9"><title>2025-07-17</title></rect><rect fill="#EBEDF0" height="4" rx="1" ry="1" width="4" x="161.20000000000007" y="41.300000000000004"><title>2025-07-18</title></rect><rect fill="#549F57" height="4" rx="1" ry="1" width="4" x="161.20000000000007" y="46.699999999999996"><title>2025-07-19 12.103 公里</title></rect><rect fill="#EBEDF0" height="4" rx="1" ry="1" width="4" x="161.20000000000007" y="52.1"><title>2025-07-20</title></rect><rect fill="#EBEDF0" height="4" rx="1" ry="1" width="4" x="166.60000000000008" y="19.7"><title>2025-07-21</title></rect><rect fill="#549F57" height="4" rx="1" ry="1" width="4" x="166.60000000000008" y="25.1"><title>2025-07-22 15.026 公里</title></rect><rect fill="#5cb260" height="4" rx="1" ry="1" width="4" x="166.60000000000008" y="30.5"><title>2025-07-23 10.692 公里</title></rect><rect fill="#5bb260" height="4" rx="1" ry="1" width="4" x="166.60000000000008" y="35.9"><title>2025-07-24 11.001 公里</title></rect><rect fill="#7ccb7f" height="4" rx="1" ry="1" width="4" x="166.60000000000008" y="41.300000000000004"><title>2025-07-25 10.009 公里</title></rect><rect fill="#7ccb7f" height="4" rx="1" ry="1" width="4" x="166.60000000000008" y="46.699999999999996"><title>2025-07-26 10.015 公里</title></rect><rect fill="#EBEDF0" height="4" rx="1" ry="1" width="4" x="166.60000000000008" y="52.1"><title>2025-07-27</title></rect><rect fill="#89d58c" height="4" rx="1" ry="1" width="4" x="172.00000000000009" y="19.7"><title>2025-07-28 7.052 公里</title></rect><rect fill="#5bb25f" height="4" rx="1" ry="1" width="4" x="172.00000000000009" y="25.1"><title>2025-07-29 11.267 公里</title></rect><rect fill="#92da95" height="4" rx="1" ry="1" width="4" x="172.00000000000009" y="30.5"><title>2025-07-30 5.125 公里</title></rect><rect fill="#5ab05e" height="4" rx="1" ry="1" width="4" x="172.00000000000009" y="35.9"><title>2025-07-31 12.011 公里</title></rect><rect fill="#7ccb7f" height="4" rx="1" ry="1" width="4" x="172.00000000000009" y="41.300000000000004"><title>2025-08-01 10.008 公里</title></rect><rect fill="#EBEDF0" height="4" rx="1" ry="1" width="4" x="172.00000000000009" y="46.699999999999996"><title>2025-08-02</title></rect><rect fill="#EBEDF0" height="4" rx="1" ry="1" width="4" x="172.00000000000009" y="52.1"><title>2025-08-03</title></rect><text fill="#000000" style="font-size:2.5px; font-family:Arial" x="177.4000000000001" y="18.3">Aug</text><rect fill="#5db361" height="4" rx="1" ry="1" width="4" x="177.4000000000001" y="19.7"><title>2025-08-04 10.029 公里</title></rect><rect fill="#7ccb7f" height="4" rx="1" ry="1" width="4" x="177.4000000000001" y="25.1"><title>2025-08-05 10.011 公里</title></rect><rect fill="#549F57" height="4" rx="1" ry="1" width="4" x="177.4000000000001" y="30.5"><title>2025-08-06 12.095 公里</title></rect><rect fill="#EBEDF0" height="4" rx="1" ry="1" width="4" x="177.4000000000001" y="35.9"><title>2025-08-07</title></rect><rect fill="#93da95" height="4" rx="1" ry="1" width="4" x="177.4000000000001" y="41.300000000000004"><title>2025-08-08 5.012 公里</title></rect><rect fill="#5cb260" height="4" rx="1" ry="1" width="4" x="177.4000000000001" y="46.699999999999996"><title>2025-08-09 10.911 公里</title></rect><rect fill="#81cf84" height="4" rx="1" ry="1" width="4" x="177.4000000000001" y="52.1"><title>2025-08-10 8.883 公里</title></rect><rect fill="#89d58c" height="4" rx="1" ry="1" width="4" x="182.8000000000001" y="19.7"><title>2025-08-11 7.024 公里</title></rect><rect fill="#549F57" height="4" rx="1" ry="1" width="4" x="182.8000000000001" y="25.1"><title>2025-08-12 12.082 公里</title></rect><rect fill="#5cb361" height="4" rx="1" ry="1" width="4" x="182.8000000000001" y="30.5"><title>2025-08-13 10.22 公里</title></rect><rect fill="#5ab05e" height="4" rx="1" ry="1" width="4" x="182.8000000000001" y="35.9"><title>2025-08-14 12.01 公里</title></rect><rect fill="#5cb361" height="4" rx="1" ry="1" width="4" x="182.8000000000001" y="41.300000000000004"><title>2025-08-15 10.075 公里</title></rect><rect fill="#89d58c" height="4" rx="1" ry="1" width="4" x="182.8000000000001" y="46.699999999999996"><title>2025-08-16 7.042 公里</title></rect><rect fill="#89d48c" height="4" rx="1" ry="1" width="4" x="182.8000000000001" y="52.1"><title>2025-08-17 7.079 公里</title></rect><rect fill="#EBEDF0" height="4" rx="1" ry="1" width="4" x="188.2000000000001" y="19.7"><title>2025-08-18</title></rect><rect fill="#7ccb7f" height="4" rx="1" ry="1" width="4" x="188.2000000000001" y="25.1"><title>2025-08-19 10.017 公里</title></rect><rect fill="#83d186" height="4" rx="1" ry="1" width="4" x="188.2000000000001" y="30.5"><title>2025-08-20 8.291 公里</title></rect><rect fill="#82d084" height="4" rx="1" ry="1" width="4" x="188.2000000000001" y="35.9"><title>2025-08-21 8.679 公里</title></rect><rect fill="#5cb360" height="4" rx="1" ry="1" width="4" x="188.2000000000001" y="41.300000000000004"><title>2025-08-22 10.505 公里</title></rect><rect fill="#84d287" height="4" rx="1" ry="1" width="4" x="188.2000000000001" y="46.699999999999996"><title>2025-08-23 8.044 公里</title></rect><rect fill="#EBEDF0" height="4" rx="1" ry="1" width="4" x="188.2000000000001" y="52.1"><title>2025-08-24</title></rect><rect fill="#EBEDF0" height="4" rx="1" ry="1" width="4" x="193.6000000000001" y="19.7"><title>2025-08-25</title></rect><rect fill="#5bb260" height="4" rx="1" ry="1" width="4" x="193.6000000000001" y="25.1"><title>2025-08-26 11.019 公里</title></rect><rect fill="#9ade9c" height="4" rx="1" ry="1" width="4" x="193.6000000000001" y="30.5"><title>2025-08-27 3.5599999999999996 公里</title></rect><rect fill="#7ccb7f" height="4" rx="1" ry="1" width="4" x="193.6000000000001" y="35.9"><title>2025-08-28 10.004 公里</title></rect><rect fill="#5cb361" height="4" rx="1" ry="1" width="4" x="193.6000000000001" y="41.300000000000004"><title>2025-08-29 10.162 公里</title></rect><rect fill="#7ccb7f" height="4" rx="1" ry="1" width="4" x="193.6000000000001" y="46.699999999999996"><title>2025-08-30 10.024 公里</title></rect><rect fill="#8bd58d" height="4" rx="1" ry="1" width="4" x="193.6000000000001" y="52.1"><title>2025-08-31 6.74 公里</title></rect><text fill="#000000" style="font-size:2.5px; font-family:Arial" x="199.0000000000001" y="18.3">Sep</text><rect fill="#EBEDF0" height="4" rx="1" ry="1" width="4" x="199.0000000000001" y="19.7"><title>2025-09-01</title></rect><rect fill="#EBEDF0" height="4" rx="1" ry="1" width="4" x="199.0000000000001" y="25.1"><title>2025-09-02</title></rect><rect fill="#7ccb7f" height="4" rx="1" ry="1" width="4" x="199.0000000000001" y="30.5"><title>2025-09-03 10.006 公里</title></rect><rect fill="#81cf83" height="4" rx="1" ry="1" width="4" x="199.0000000000001" y="35.9"><title>2025-09-04 8.895 公里</title></rect><rect fill="#7ccb7f" height="4" rx="1" ry="1" width="4" x="199.0000000000001" y="41.300000000000004"><title>2025-09-05 10.012 公里</title></rect><rect fill="#EBEDF0" height="4" rx="1" ry="1" width="4" x="199.0000000000001" y="46.699999999999996"><title>2025-09-06</title></rect><rect fill="#84d187" height="4" rx="1" ry="1" width="4" x="199.0000000000001" y="52.1"><title>2025-09-07 8.202 公里</title></rect><rect fill="#EBEDF0" height="4" rx="1" ry="1" width="4" x="204.40000000000012" y="19.7"><title>2025-09-08</title></rect><rect fill="#7ccb7f" height="4" rx="1" ry="1" width="4" x="204.40000000000012" y="25.1"><title>2025-09-09 10.005 公里</title></rect><rect fill="#EBEDF0" height="4" rx="1" ry="1" width="4" x="204.40000000000012" y="30.5"><title>2025-09-10</title></rect><rect fill="#5db361" height="4" rx="1" ry="1" width="4" x="204.40000000000012" y="35.9"><title>2025-09-11 10.04 公里</title></rect><rect fill="#89d58c" height="4" rx="1" ry="1" width="4" x="204.40000000000012" y="41.300000000000004"><title>2025-09-12 7.028 公里</title></rect><rect fill="#EBEDF0" height="4" rx="1" ry="1" width="4" x="204.40000000000012" y="46.699999999999996"><title>2025-09-13</title></rect><rect fill="#5ab05e" height="4" rx="1" ry="1" width="4" x="204.40000000000012" y="52.1"><title>2025-09-14 12.032 公里</title></rect><rect fill="#549F57" height="4" rx="1" ry="1" width="4" x="209.80000000000013" y="19.7"><title>2025-09-15 17.009 公里</title></rect><rect fill="#EBEDF0" height="4" rx="1" ry="1" width="4" x="209.80000000000013" y="25.1"><title>2025-09-16</title></rect><rect fill="#EBEDF0" height="4" rx="1" ry="1" width="4" x="209.80000000000013" y="30.5"><title>2025-09-17</title></rect><rect fill="#8dd78f" height="4" rx="1" ry="1" width="4" x="209.80000000000013" y="35.9"><title>2025-09-18 6.314 公里</title></rect><rect fill="#89d58c" height="4" rx="1" ry="1" width="4" x="209.80000000000013" y="41.300000000000004"><title>2025-09-19 7.017 公里</title></rect><rect fill="#5bb260" height="4" rx="1" ry="1" width="4" x="209.80000000000013" y="46.699999999999996"><title>2025-09-20 11.018 公里</title></rect><rect fill="#89d58c" height="4" rx="1" ry="1" width="4" x="209.80000000000013" y="52.1"><title>2025-09-21 6.983 公里</title></rect><rect fill="#7ccb7f" height="4" rx="1" ry="1" width="4" x="215.20000000000013" y="19.7"><title>2025-09-22 10.009 公里</title></rect><rect fill="#7ccb7f" height="4" rx="1" ry="1" width="4" x="215.20000000000013" y="25.1"><title>2025-09-23 10.009 公里</title></rect><rect fill="#EBEDF0" height="4" rx="1" ry="1" width="4" x="215.20000000000013" y="30.5"><title>2025-09-24</title></rect><rect fill="#7fce82" height="4" rx="1" ry="1" width="4" x="215.20000000000013" y="35.9"><title>2025-09-25 9.152 公里</title></rect><rect fill="#7ccb7f" height="4" rx="1" ry="1" width="4" x="215.20000000000013" y="41.300000000000004"><title>2025-09-26 10.008 公里</title></rect><rect fill="#5ab05e" height="4" rx="1" ry="1" width="4" x="215.20000000000013" y="46.699999999999996"><title>2025-09-27 12.019 公里</title></rect><rect fill="#EBEDF0" height="4" rx="1" ry="1" width="4" x="215.20000000000013" y="52.1"><title>2025-09-28</title></rect><rect fill="#5cb361" height="4" rx="1" ry="1" width="4" x="220.60000000000014" y="19.7"><title>2025-09-29 10.1 公里</title></rect><rect fill="#5cb361" height="4" rx="1" ry="1" width="4" x="220.60000000000014" y="25.1"><title>2025-09-30 10.19 公里</title></rect><rect fill="#5db361" height="4" rx="1" ry="1" width="4" x="220.60000000000014" y="30.5"><title>2025-10-01 10.045 公里</title></rect><rect fill="#82d085" height="4" rx="1" ry="1" width="4" x="220.60000000000014" y="35.9"><title>2025-10-02 8.64 公里</title></rect><rect fill="#EBEDF0" height="4" rx="1" ry="1" width="4" x="220.60000000000014" y="41.300000000000004"><title>2025-10-03</title></rect><rect fill="#EBEDF0" height="4" rx="1" ry="1" width="4" x="220.60000000000014" y="46.699999999999996"><title>2025-10-04</title></rect><rect fill="#EBEDF0" height="4" rx="1" ry="1" width="4" x="220.60000000000014" y="52.1"><title>2025-10-05</title></rect><text fill="#000000" style="font-size:2.5px; font-family:Arial" x="226.00000000000014" y="18.3">Oct</text><rect fill="#5bb260" height="4" rx="1" ry="1" width="4" x="226.00000000000014" y="19.7"><title>2025-10-06 11.024 公里</title></rect><rect fill="#EBEDF0" height="4" rx="1" ry="1" width="4" x="226.00000000000014" y="25.1"><title>2025-10-07</title></rect><rect fill="#5ab05e" height="4" rx="1" ry="1" width="4" x="226.00000000000014" y="30.5"><title>2025-10-08 12.019 公里</title></rect><rect fill="#5ab05e" height="4" rx="1" ry="1" width="4" x="226.00000000000014" y="35.9"><title>2025-10-09 12.015 公里</title></rect><rect fill="#5cb361" height="4" rx="1" ry="1" width="4" x="226.00000000000014" y="41.300000000000004"><title>2025-10-10 10.068 公里</title></rect><rect fill="#5ab05e" height="4" rx="1" ry="1" width="4" x="226.00000000000014" y="46.699999999999996"><title>2025-10-11 12.022 公里</title></rect><rect fill="#549F57" height="4" rx="1" ry="1" width="4" x="226.00000000000014" y="52.1"><title>2025-10-12 15.01 公里</title></rect><rect fill="#EBEDF0" height="4" rx="1" ry="1" width="4" x="231.40000000000015" y="19.7"><title>2025-10-13</title></rect><rect fill="#7ccb7f" height="4" rx="1" ry="1" width="4" x="231.40000000000015" y="25.1"><title>2025-10-14 10.02 公里</title></rect><rect fill="#7ccb7f" height="4" rx="1" ry="1" width="4" x="231.40000000000015" y="30.5"><title>2025-10-15 10.016 公里</title></rect><rect fill="#5db361" height="4" rx="1" ry="1" width="4" x="231.40000000000015" y="35.9"><title>2025-10-16 10.026 公里</title></rect><rect fill="#7ccb7f" height="4" rx="1" ry="1" width="4" x="231.40000000000015" y="41.300000000000004"><title>2025-10-17 10.015 公里</title></rect><rect fill="#EBEDF0" height="4" rx="1" ry="1" width="4" x="231.40000000000015" y="46.699999999999996"><title>2025-10-18</title></rect><rect fill="#7ccb7f" height="4" rx="1" ry="1" width="4" x="231.40000000000015" y="52.1"><title>2025-10-19 10.014 公里</title></rect><rect fill="#5cb361" height="4" rx="1" ry="1" width="4" x="236.80000000000015" y="19.7"><title>2025-10-20 10.2 公里</title></rect><rect fill="#7ccb7f" height="4" rx="1" ry="1" width="4" x="236.80000000000015" y="25.1"><title>2025-10-21 10.007 公里</title></rect><rect fill="#96dc98" height="4" rx="1" ry="1" width="4" x="236.80000000000015" y="30.5"><title>2025-10-22 4.339 公里</title></rect><rect fill="#EBEDF0" height="4" rx="1" ry="1" width="4" x="236.80000000000015" y="35.9"><title>2025-10-23</title></rect><rect fill="#549F57" height="4" rx="1" ry="1" width="4" x="236.80000000000015" y="41.300000000000004"><title>2025-10-24 12.039 公里</title></rect><rect fill="#7ccb7f" height="4" rx="1" ry="1" width="4" x="236.80000000000015" y="46.699999999999996"><title>2025-10-25 10.022 公里</title></rect><rect fill="#EBEDF0" height="4" rx="1" ry="1" width="4" x="236.80000000000015" y="52.1"><title>2025-10-26</title></rect><rect fill="#549F57" height="4" rx="1" ry="1" width="4" x="242.20000000000016" y="19.7"><title>2025-10-27 17.011 公里</title></rect><rect fill="#549F57" height="4" rx="1" ry="1" width="4" x="242.20000000000016" y="25.1"><title>2025-10-28 12.166 公里</title></rect><rect fill="#5bb260" height="4" rx="1" ry="1" width="4" x="242.20000000000016" y="30.5"><title>2025-10-29 11.008 公里</title></rect><rect fill="#5bb260" height="4" rx="1" ry="1" width="4" x="242.20000000000016" y="35.9"><title>2025-10-30 11.013 公里</title></rect><rect fill="#9bdf9e" height="4" rx="1" ry="1" width="4" x="242.20000000000016" y="41.300000000000004"><title>2025-10-31 3.244 公里</title></rect><rect fill="#5bb260" height="4" rx="1" ry="1" width="4" x="242.20000000000016" y="46.699999999999996"><title>2025-11-01 11.007 公里</title></rect><rect fill="#EBEDF0" height="4" rx="1" ry="1" width="4" x="242.20000000000016" y="52.1"><title>2025-11-02</title></rect><text fill="#000000" style="font-size:2.5px; font-family:Arial" x="247.60000000000016" y="18.3">Nov</text><rect fill="#7ccb7f" height="4" rx="1" ry="1" width="4" x="247.60000000000016" y="19.7"><title>2025-11-03 10.019 公里</title></rect><rect fill="#EBEDF0" height="4" rx="1" ry="1" width="4" x="247.60000000000016" y="25.1"><title>2025-11-04</title></rect><rect fill="#549F57" height="4" rx="1" ry="1" width="4" x="247.60000000000016" y="30.5"><title>2025-11-05 15.755 公里</title></rect><rect fill="#84d187" height="4" rx="1" ry="1" width="4" x="247.60000000000016" y="35.9"><title>2025-11-06 8.089 公里</title></rect><rect fill="#EBEDF0" height="4" rx="1" ry="1" width="4" x="247.60000000000016" y="41.300000000000004"><title>2025-11-07</title></rect><rect fill="#5bb260" height="4" rx="1" ry="1" width="4" x="247.60000000000016" y="46.699999999999996"><title>2025-11-08 11.018 公里</title></rect><rect fill="#EBEDF0" height="4" rx="1" ry="1" width="4" x="247.60000000000016" y="52.1"><title>2025-11-09</title></rect><rect fill="#549F57" height="4" rx="1" ry="1" width="4" x="253.00000000000017" y="19.7"><title>2025-11-10 13.692 公里</title></rect><rect fill="#5bb15f" height="4" rx="1" ry="1" width="4" x="253.00000000000017" y="25.1"><title>2025-11-11 11.755 公里</title></rect><rect fill="#7ccb7f" height="4" rx="1" ry="1" width="4" x="253.00000000000017" y="30.5"><title>2025-11-12 10.011 公里</title></rect><rect fill="#EBEDF0" height="4" rx="1" ry="1" width="4" x="253.00000000000017" y="35.9"><title>2025-11-13</title></rect><rect fill="#5bb260" height="4" rx="1" ry="1" width="4" x="253.00000000000017" y="41.300000000000004"><title>2025-11-14 11.012 公里</title></rect><rect fill="#5bb260" height="4" rx="1" ry="1" width="4" x="253.00000000000017" y="46.699999999999996"><title>2025-11-15 11.004 公里</title></rect><rect fill="#7ccb7f" height="4" rx="1" ry="1" width="4" x="253.00000000000017" y="52.1"><title>2025-11-16 10.012 公里</title></rect><rect fill="#549F57" height="4" rx="1" ry="1" width="4" x="258.40000000000015" y="19.7"><title>2025-11-17 17.206 公里</title></rect><rect fill="#EBEDF0" height="4" rx="1" ry="1" width="4" x="258.40000000000015" y="25.1"><title>2025-11-18</title></rect><rect fill="#EBEDF0" height="4" rx="1" ry="1" width="4" x="258.40000000000015" y="30.5"><title>2025-11-19</title></rect><rect fill="#EBEDF0" height="4" rx="1" ry="1" width="4" x="258.40000000000015" y="35.9"><title>2025-11-20</title></rect><rect fill="#EBEDF0" height="4" rx="1" ry="1" width="4" x="258.40000000000015" y="41.300000000000004"><title>2025-11-21</title></rect><rect fill="#EBEDF0" height="4" rx="1" ry="1" width="4" x="258.40000000000015" y="46.699999999999996"><title>2025-11-22</title></rect><rect fill="#EBEDF0" height="4" rx="1" ry="1" width="4" x="258.40000000000015" y="52.1"><title>2025-11-23</title></rect><rect fill="#EBEDF0" height="4" rx="1" ry="1" width="4" x="263.8000000000001" y="19.7"><title>2025-11-24</title></rect><rect fill="#EBEDF0" height="4" rx="1" ry="1" width="4" x="263.8000000000001" y="25.1"><title>2025-11-25</title></rect><rect fill="#EBEDF0" height="4" rx="1" ry="1" width="4" x="263.8000000000001" y="30.5"><title>2025-11-26</title></rect><rect fill="#EBEDF0" height="4" rx="1" ry="1" width="4" x="263.8000000000001" y="35.9"><title>2025-11-27</title></rect><rect fill="#EBEDF0" height="4" rx="1" ry="1" width="4" x="263.8000000000001" y="41.300000000000004"><title>2025-11-28</title></rect><rect fill="#EBEDF0" height="4" rx="1" ry="1" width="4" x="263.8000000000001" y="46.699999999999996"><title>2025-11-29</title></rect><rect fill="#EBEDF0" height="4" rx="1" ry="1" width="4" x="263.8000000000001" y="52.1"><title>2025-11-30</title></rect><text fill="#000000" style="font-size:2.5px; font-family:Arial" x="269.2000000000001" y="18.3">Dec</text><rect fill="#EBEDF0" height="4" rx="1" ry="1" width="4" x="269.2000000000001" y="19.7"><title>2025-12-01</title></rect><rect fill="#EBEDF0" height="4" rx="1" ry="1" width="4" x="269.2000000000001" y="25.1"><title>2025-12-02</title></rect><rect fill="#EBEDF0" height="4" rx="1" ry="1" width="4" x="269.2000000000001" y="30.5"><title>2025-12-03</title></rect><rect fill="#EBEDF0" height="4" rx="1" ry="1" width="4" x="269.2000000000001" y="35.9"><title>2025-12-04</title></rect><rect fill="#EBEDF0" height="4" rx="1" ry="1" width="4" x="269.2000000000001" y="41.300000000000004"><title>2025-12-05</title></rect><rect fill="#EBEDF0" height="4" rx="1" ry="1" width="4" x="269.2000000000001" y="46.699999999999996"><title>2025-12-06</title></rect><rect fill="#EBEDF0" height="4" rx="1" ry="1" width="4" x="269.2000000000001" y="52.1"><title>2025-12-07</title></rect><rect fill="#EBEDF0" height="4" rx="1" ry="1" width="4" x="274.6000000000001" y="19.7"><title>2025-12-08</title></rect><rect fill="#EBEDF0" height="4" rx="1" ry="1" width="4" x="274.6000000000001" y="25.1"><title>2025-12-09</title></rect><rect fill="#EBEDF0" height="4" rx="1" ry="1" width="4" x="274.6000000000001" y="30.5"><title>2025-12-10</title></rect><rect fill="#EBEDF0" height="4" rx="1" ry="1" width="4" x="274.6000000000001" y="35.9"><title>2025-12-11</title></rect><rect fill="#EBEDF0" height="4" rx="1" ry="1" width="4" x="274.6000000000001" y="41.300000000000004"><title>2025-12-12</title></rect><rect fill="#EBEDF0" height="4" rx="1" ry="1" width="4" x="274.6000000000001" y="46.699999999999996"><title>2025-12-13</title></rect><rect fill="#EBEDF0" height="4" rx="1" ry="1" width="4" x="274.6000000000001" y="52.1"><title>2025-12-14</title></rect><rect fill="#EBEDF0" height="4" rx="1" ry="1" width="4" x="280.00000000000006" y="19.7"><title>2025-12-15</title></rect><rect fill="#EBEDF0" height="4" rx="1" ry="1" width="4" x="280.00000000000006" y="25.1"><title>2025-12-16</title></rect><rect fill="#EBEDF0" height="4" rx="1" ry="1" width="4" x="280.00000000000006" y="30.5"><title>2025-12-17</title></rect><rect fill="#EBEDF0" height="4" rx="1" ry="1" width="4" x="280.00000000000006" y="35.9"><title>2025-12-18</title></rect><rect fill="#EBEDF0" height="4" rx="1" ry="1" width="4" x="280.00000000000006" y="41.300000000000004"><title>2025-12-19</title></rect><rect fill="#EBEDF0" height="4" rx="1" ry="1" width="4" x="280.00000000000006" y="46.699999999999996"><title>2025-12-20</title></rect><rect fill="#EBEDF0" height="4" rx="1" ry="1" width="4" x="280.00000000000006" y="52.1"><title>2025-12-21</title></rect><rect fill="#EBEDF0" height="4" rx="1" ry="1" width="4" x="285.40000000000003" y="19.7"><title>2025-12-22</title></rect><rect fill="#EBEDF0" height="4" rx="1" ry="1" width="4" x="285.40000000000003" y="25.1"><title>2025-12-23</title></rect><rect fill="#EBEDF0" height="4" rx="1" ry="1" width="4" x="285.40000000000003" y="30.5"><title>2025-12-24</title></rect><rect fill="#EBEDF0" height="4" rx="1" ry="1" width="4" x="285.40000000000003" y="35.9"><title>2025-12-25</title></rect><rect fill="#EBEDF0" height="4" rx="1" ry="1" width="4" x="285.40000000000003" y="41.300000000000004"><title>2025-12-26</title></rect><rect fill="#EBEDF0" height="4" rx="1" ry="1" width="4" x="285.40000000000003" y="46.699999999999996"><title>2025-12-27</title></rect><rect fill="#EBEDF0" height="4" rx="1" ry="1" width="4" x="285.40000000000003" y="52.1"><title>2025-12-28</title></rect><rect fill="#EBEDF0" height="4" rx="1" ry="1" width="4" x="290.8" y="19.7"><title>2025-12-29</title></rect><rect fill="#EBEDF0" height="4" rx="1" ry="1" width="4" x="290.8" y="25.1"><title>2025-12-30</title></rect><rect fill="#EBEDF0" height="4" rx="1" ry="1" width="4" x="290.8" y="30.5"><title>2025-12-31</title></rect></svg>